<svg width="17" height="14" viewBox="0 0 17 14" fill="none" xmlns="http://www.w3.org/2000/svg">
<path d="M14.3065 1.91367C13.269 1.43754 12.1743 1.09772 11.0495 0.902672C11.0393 0.900956 11.0289 0.902438 11.0196 0.906915C11.0102 0.911392 11.0025 0.918643 10.9975 0.927672C10.8565 1.17767 10.7005 1.50467 10.5915 1.76067C9.37913 1.57668 8.14591 1.57668 6.93352 1.76067C6.81193 1.47549 6.67438 1.19739 6.52152 0.927672C6.51639 0.918742 6.50868 0.911574 6.4994 0.907112C6.49011 0.902649 6.4797 0.901102 6.46952 0.902672C5.34452 1.09667 4.24952 1.43667 3.21252 1.91367C3.20365 1.91706 3.19623 1.92342 3.19152 1.93167C1.11752 5.03067 0.548521 8.05367 0.827521 11.0387C0.828521 11.0527 0.837521 11.0667 0.848521 11.0757C2.05625 11.9703 3.40711 12.6533 4.84352 13.0957C4.85366 13.0989 4.86456 13.0988 4.87463 13.0953C4.8847 13.0919 4.89342 13.0854 4.89952 13.0767C5.20752 12.6567 5.48152 12.2137 5.71752 11.7477C5.72244 11.7381 5.72412 11.7271 5.72232 11.7165C5.72052 11.7059 5.71533 11.6961 5.70752 11.6887C5.70235 11.6838 5.69622 11.68 5.68952 11.6777C5.25868 11.5121 4.84142 11.3132 4.44152 11.0827C4.43035 11.0763 4.42204 11.066 4.41832 11.0537C4.4146 11.0414 4.41574 11.0281 4.42152 11.0167C4.42492 11.0092 4.43007 11.0027 4.43652 10.9977C4.52052 10.9347 4.60452 10.8687 4.68452 10.8027C4.69159 10.797 4.70007 10.7933 4.70905 10.7921C4.71803 10.7909 4.72718 10.7921 4.73552 10.7957C7.35452 11.9917 10.1895 11.9917 12.7765 10.7957C12.7852 10.7919 12.7947 10.7906 12.804 10.7918C12.8133 10.7931 12.8221 10.7968 12.8295 10.8027C12.9095 10.8687 12.9935 10.9347 13.0775 10.9977C13.0843 11.0026 13.0898 11.0092 13.0934 11.0168C13.0971 11.0244 13.0988 11.0328 13.0984 11.0412C13.098 11.0497 13.0955 11.0579 13.0912 11.0651C13.0868 11.0723 13.0808 11.0784 13.0735 11.0827C12.6745 11.3153 12.2567 11.514 11.8245 11.6767C11.8176 11.6792 11.8114 11.6831 11.8062 11.6883C11.801 11.6935 11.797 11.6998 11.7945 11.7067C11.7922 11.7134 11.7913 11.7204 11.7918 11.7275C11.7923 11.7345 11.7943 11.7414 11.7975 11.7477C12.0375 12.2127 12.3125 12.6567 12.6145 13.0767C12.6206 13.0854 12.6293 13.0919 12.6394 13.0953C12.6495 13.0988 12.6604 13.0989 12.6705 13.0957C14.1093 12.6547 15.4624 11.9716 16.6715 11.0757C16.6776 11.0715 16.6826 11.066 16.6862 11.0596C16.6899 11.0532 16.692 11.046 16.6925 11.0387C17.0265 7.58767 16.1335 4.58967 14.3265 1.93267C14.3247 1.92828 14.322 1.92433 14.3185 1.92105C14.3151 1.91778 14.311 1.91527 14.3065 1.91367ZM6.10852 9.22067C5.31952 9.22067 4.67052 8.49667 4.67052 7.60867C4.67052 6.71967 5.30752 5.99567 6.10852 5.99567C6.91552 5.99567 7.55852 6.72567 7.54652 7.60867C7.54652 8.49667 6.90952 9.22067 6.10852 9.22067ZM11.4245 9.22067C10.6365 9.22067 9.98652 8.49667 9.98652 7.60867C9.98652 6.71967 10.6235 5.99567 11.4245 5.99567C12.2315 5.99567 12.8755 6.72567 12.8625 7.60867C12.8625 8.49667 12.2315 9.22067 11.4245 9.22067Z" fill="white"/>
</svg>
