<svg width="17" height="16" viewBox="0 0 17 16" fill="none" xmlns="http://www.w3.org/2000/svg">
<path d="M16.7614 8C16.7614 10.1217 15.9185 12.1566 14.4182 13.6569C12.9179 15.1571 10.8831 16 8.76135 16C6.63962 16 4.60479 15.1571 3.1045 13.6569C1.60421 12.1566 0.761353 10.1217 0.761353 8C0.761353 5.87827 1.60421 3.84344 3.1045 2.34315C4.60479 0.842855 6.63962 0 8.76135 0C10.8831 0 12.9179 0.842855 14.4182 2.34315C15.9185 3.84344 16.7614 5.87827 16.7614 8ZM9.04835 5.906C8.27035 6.23 6.71435 6.9 4.38235 7.916C4.00435 8.066 3.80535 8.214 3.78735 8.358C3.75735 8.601 4.06235 8.697 4.47735 8.828L4.65235 8.883C5.06035 9.016 5.61035 9.171 5.89535 9.177C6.15535 9.183 6.44435 9.077 6.76335 8.857C8.94235 7.386 10.0674 6.643 10.1374 6.627C10.1874 6.615 10.2574 6.601 10.3034 6.643C10.3504 6.684 10.3454 6.763 10.3404 6.784C10.3104 6.913 9.11335 8.025 8.49435 8.601C8.30135 8.781 8.16435 8.908 8.13635 8.937C8.0747 9.00001 8.01202 9.06202 7.94835 9.123C7.56835 9.489 7.28435 9.763 7.96335 10.211C8.29035 10.427 8.55235 10.604 8.81335 10.782C9.09735 10.976 9.38135 11.169 9.74935 11.411C9.84235 11.471 9.93235 11.536 10.0194 11.598C10.3504 11.834 10.6494 12.046 11.0164 12.012C11.2304 11.992 11.4514 11.792 11.5634 11.192C11.8284 9.775 12.3494 6.706 12.4694 5.441C12.4767 5.33584 12.4723 5.2302 12.4564 5.126C12.4469 5.04192 12.4062 4.96446 12.3424 4.909C12.2514 4.84619 12.1429 4.81365 12.0324 4.816C11.7324 4.821 11.2694 4.982 9.04835 5.906Z" fill="white"/>
</svg>
