<svg width="22" height="16" viewBox="0 0 22 16" fill="none" xmlns="http://www.w3.org/2000/svg">
<path d="M0.761536 13.7197C9.22307 18.2288 19.9692 13.2106 19.8 4.26514C20.6462 3.75605 21.4077 3.1015 22 2.3015C21.1538 2.66514 20.3077 2.88332 19.3769 2.95605C20.3415 2.44696 21.0692 1.71968 21.4077 0.846957C20.5615 1.28332 19.7154 1.57423 18.6154 1.79241C14.9769 -1.21122 10.1538 2.01059 11.1692 5.21059C7.53077 5.06514 4.4 3.53787 2.2 1.28332C1.18461 3.02878 1.60769 5.28332 3.63846 6.3015C2.87692 6.22878 2.03077 6.08332 1.60769 5.79241C1.60769 7.68332 3.13077 9.13787 5.07692 9.5015C4.4 9.64696 3.80769 9.71968 3.13077 9.57423C3.63846 11.0288 5.33077 12.1924 7.1923 12.1924C5.5 13.356 3.21538 13.9379 0.761536 13.7197Z" fill="white"/>
</svg>
